<svg width="2818" height="1472" viewBox="0 0 2818 1472" fill="none" xmlns="http://www.w3.org/2000/svg">
<path d="M2740 1420.5C1695.6 1461.6 1111.84 1463.06 74 1421.5L60 1361H2748.5L2740 1420.5Z" fill="#C4C4C4"/>
<path d="M74 1421.5L73.0257 1421.73L73.1977 1422.47L73.96 1422.5L74 1421.5ZM2740 1420.5L2740.04 1421.5L2740.87 1421.47L2740.99 1420.64L2740 1420.5ZM2748.5 1361L2749.49 1361.14L2749.65 1360H2748.5V1361ZM60 1361V1360H58.7422L59.0257 1361.23L60 1361ZM73.96 1422.5C1111.83 1464.06 1695.62 1462.6 2740.04 1421.5L2739.96 1419.5C1695.59 1460.6 1111.86 1462.06 74.04 1420.5L73.96 1422.5ZM2740.99 1420.64L2749.49 1361.14L2747.51 1360.86L2739.01 1420.36L2740.99 1420.64ZM74.9743 1421.27L60.9743 1360.77L59.0257 1361.23L73.0257 1421.73L74.9743 1421.27ZM60 1362H2748.5V1360H60V1362Z" fill="black"/>
<path d="M41.3299 94.079C42.0403 93.1661 43.3589 92.1791 45.3912 91.1536C47.4058 90.1371 50.0398 89.1229 53.2905 88.1161C59.7906 86.103 68.6597 84.1491 79.7597 82.2587C101.954 78.479 132.956 74.9717 171.522 71.7378C248.648 65.2707 355.94 59.904 483.334 55.6288C738.117 47.0787 1073.26 42.8961 1408.17 43.002C1743.08 43.1079 2077.76 47.5023 2331.62 56.1054C2458.56 60.407 2565.27 65.7605 2641.71 72.1549C2679.93 75.3523 2710.56 78.8084 2732.35 82.5194C2743.24 84.3754 2751.9 86.2905 2758.19 88.2594C2761.33 89.2441 2763.85 90.2341 2765.75 91.2234C2767.67 92.2237 2768.85 93.1741 2769.45 94.0322C2772.24 98.0916 2775.07 106.326 2777.85 118.4C2780.62 130.422 2783.31 146.104 2785.91 164.932C2791.09 202.585 2795.86 252.752 2800.02 311.247C2808.35 428.233 2814.26 578.472 2816.26 728.398C2818.26 878.327 2816.34 1027.92 2809.01 1143.62C2805.34 1201.48 2800.32 1250.83 2793.77 1287.51C2790.5 1305.85 2786.84 1320.99 2782.8 1332.42C2778.73 1343.91 2774.33 1351.47 2769.68 1354.87C2767.41 1356.54 2762.68 1358.24 2755.45 1359.92C2748.27 1361.59 2738.78 1363.2 2727.12 1364.76C2703.8 1367.87 2671.87 1370.74 2632.55 1373.38C2553.93 1378.65 2445.84 1382.97 2318.15 1386.37C2062.79 1393.17 1729.11 1396.3 1396.19 1395.98C1063.27 1395.66 731.128 1391.9 478.836 1384.94C352.689 1381.46 246.515 1377.18 170.194 1372.13C132.032 1369.6 101.349 1366.88 79.3719 1363.98C68.3807 1362.53 59.5888 1361.03 53.1356 1359.49C49.9082 1358.72 47.2871 1357.95 45.2776 1357.18C43.2428 1356.39 41.933 1355.64 41.2375 1354.96C39.6895 1353.46 38.1159 1350.9 36.5508 1347.24C34.9934 1343.6 33.4771 1338.96 32.0061 1333.36C29.0644 1322.16 26.3259 1307.23 23.7945 1289.08C18.7323 1252.78 14.5112 1203.69 11.1334 1146.01C4.37815 1030.67 0.999975 881.068 1 730.927C1.00003 580.786 4.37824 430.124 11.1336 312.663C14.5114 253.931 18.7326 203.515 23.7954 165.623C26.327 146.675 29.0664 130.878 32.0108 118.746C34.9679 106.562 38.0974 98.2331 41.3299 94.079Z" fill="#F6F1F1" stroke="black" stroke-width="2"/>
<line x1="56.0001" y1="385" x2="2748" y2="385.281" stroke="black" stroke-opacity="0.4" stroke-width="2"/>
<line x1="2174.5" y1="116.996" x2="2183" y2="1263.04" stroke="black" stroke-opacity="0.4"/>
<line x1="462" y1="201" x2="462" y2="632" stroke="black" stroke-opacity="0.3" stroke-width="2"/>
<path d="M942.374 1059.91C895.389 1029.3 817.642 986.334 910.374 976.356C1143.33 951.291 1383.27 959.718 1617.48 964.356C1659.22 965.183 1696.72 969.175 1737.04 978.134C1751.17 981.274 1767.77 989.889 1782.37 986.134C1822.83 975.73 1822.36 896.687 1799.71 872.356C1738.26 806.36 1612.45 803.912 1529.93 803.912C1497.18 803.912 1454.26 811.1 1493.93 847.467C1561.53 909.43 1408.26 977.021 1359.26 963.023C1348.35 959.906 1348.17 942.311 1352.15 933.689C1361.33 913.809 1424.31 923.912 1440.15 923.912C1543.23 923.912 1612.92 939.45 1669.48 1030.58C1692.35 1067.41 1678.23 1083.21 1723.71 1058.13C1802.1 1014.92 1882.03 973.999 1961.48 932.801C2064.08 879.601 2054.35 1061.25 2152.15 1036.8C2226.38 1018.24 2291 959.069 2364.6 933.689C2394.89 923.242 2410.88 825.399 2417.93 795.912C2424.1 770.091 2430.37 690.697 2430.37 717.245C2430.37 764.195 2431.02 811.19 2430.37 858.134C2429.06 953.832 2399.91 1033.17 2398.37 1126.58C2396.67 1230.42 2150.37 1219.9 2150.37 1131.91C2150.37 1084.52 2257.63 1063.48 2289.93 1051.47C2305.97 1045.5 2369.93 1028.11 2376.15 1010.13C2384.04 987.332 2387.24 952.709 2381.93 928.801C2376.72 905.373 2366.37 957.383 2366.37 963.912C2366.37 971.646 2366.44 980.072 2361.93 965.245C2349.93 925.831 2339.67 885.018 2330.82 844.801C2325.71 821.594 2301.18 750.583 2328.15 731.912C2369.67 703.17 2477.7 703.068 2442.82 621.689C2422.75 574.861 2356.96 614.115 2343.26 643.467C2331.36 668.98 2334.37 696.517 2334.37 723.912" stroke="black" stroke-opacity="0.5" stroke-linecap="round" stroke-linejoin="round"/>
<path d="M268.059 586C279.2 586 347.829 575.736 359.614 590.889C373.746 609.059 366.742 660.232 388.059 672.222C405.791 682.197 312.49 772.481 297.392 788.222C289.429 796.524 197.404 895.737 196.059 850C194.574 799.521 221.32 766.78 276.059 770C287.854 770.694 264.226 768.227 260.503 738.444C256.243 704.362 287.078 682 319.17 682C372.547 682 344.074 800.727 288.503 730C258.561 691.892 251.119 640.269 224.503 598.444C197.24 555.602 218.566 538 267.614 538C298.747 538 211.722 481.327 204.059 466" stroke="black" stroke-opacity="0.5" stroke-linecap="round" stroke-linejoin="round"/>
<path d="M2678.31 490.552C2783.96 358.393 2769.22 1185.24 2690.59 1276.73C2611.97 1368.23 1159.96 1310.94 1844.58 1241.57C2529.21 1172.21 2572.65 622.712 2678.31 490.552Z" fill="#FCF9F9" fill-opacity="0.61"/>
<path d="M151.471 1292.16C151.558 1292.42 151.841 1292.56 152.103 1292.47C152.365 1292.39 152.507 1292.11 152.42 1291.84L151.471 1292.16ZM137.287 1245.87L137.783 1245.81L137.783 1245.81L137.287 1245.87ZM137.276 1245.78L137.772 1245.71L137.772 1245.71L137.276 1245.78ZM150.671 1245.41L150.283 1245.73L150.283 1245.73L150.671 1245.41ZM158.501 1263.11L158.958 1262.91L158.958 1262.91L158.501 1263.11ZM162.598 1272.19L162.912 1271.8L162.912 1271.8L162.598 1272.19ZM160.14 1262.29L160.628 1262.18L160.628 1262.18L160.14 1262.29ZM165.876 1221.11L165.985 1220.62L165.876 1221.11ZM187.583 1265.86C187.735 1266.09 188.046 1266.16 188.276 1266C188.506 1265.85 188.569 1265.54 188.417 1265.31L187.583 1265.86ZM202.046 1220.05C202.265 1219.88 202.306 1219.57 202.138 1219.35C201.97 1219.13 201.656 1219.09 201.437 1219.26L202.046 1220.05ZM192.613 1244.97L193.048 1244.72L193.048 1244.72L192.613 1244.97ZM211.701 1250.68L211.728 1251.18L211.728 1251.18L211.701 1250.68ZM201.742 1217.52C201.466 1217.52 201.242 1217.74 201.242 1218.02C201.242 1218.29 201.466 1218.52 201.742 1218.52V1217.52ZM213.5 1177.99C213.494 1177.71 213.266 1177.49 212.99 1177.5C212.714 1177.51 212.495 1177.73 212.5 1178.01L213.5 1177.99ZM235.552 1226.22C235.675 1226.47 235.975 1226.57 236.222 1226.45C236.47 1226.33 236.571 1226.03 236.448 1225.78L235.552 1226.22ZM234.639 1203.99C234.448 1204.19 234.455 1204.51 234.654 1204.7C234.853 1204.89 235.17 1204.88 235.361 1204.68L234.639 1203.99ZM252.132 1175.26L252.378 1174.83L252.132 1175.26ZM266.5 1189.39C266.5 1189.11 266.276 1188.89 266 1188.89C265.724 1188.89 265.5 1189.11 265.5 1189.39H266.5ZM268.5 1163.1C268.493 1162.83 268.264 1162.61 267.988 1162.61C267.712 1162.62 267.494 1162.85 267.5 1163.13L268.5 1163.1ZM281.731 1194.06L281.309 1194.33L281.309 1194.33L281.731 1194.06ZM276.436 1186.28L276.901 1186.09L276.901 1186.09L276.436 1186.28ZM275.359 1170.44L275.755 1170.75L275.755 1170.75L275.359 1170.44ZM288.552 1164.96C288.675 1165.21 288.975 1165.31 289.222 1165.19C289.47 1165.07 289.571 1164.77 289.448 1164.52L288.552 1164.96ZM324.338 1156.5C324.614 1156.5 324.838 1156.28 324.838 1156C324.838 1155.72 324.614 1155.5 324.338 1155.5V1156.5ZM314.711 1179.42L314.253 1179.21L314.253 1179.21L314.711 1179.42ZM320.635 1160.65L321.108 1160.48L321.108 1160.48L320.635 1160.65ZM341.5 1162.69C341.5 1162.41 341.276 1162.19 341 1162.19C340.724 1162.19 340.5 1162.41 340.5 1162.69H341.5ZM316.322 1109.62C316.111 1109.44 315.796 1109.47 315.618 1109.68C315.44 1109.89 315.466 1110.2 315.678 1110.38L316.322 1109.62ZM348.903 1144.85L348.538 1145.19L348.903 1144.85ZM367.5 1141.53C367.5 1141.25 367.276 1141.03 367 1141.03C366.724 1141.03 366.5 1141.25 366.5 1141.53H367.5ZM351 1117.5C351.276 1117.5 351.5 1117.28 351.5 1117C351.5 1116.72 351.276 1116.5 351 1116.5V1117.5ZM324.333 1127.4L323.949 1127.08L323.949 1127.08L324.333 1127.4ZM300.821 1140.53C300.563 1140.63 300.434 1140.92 300.533 1141.18C300.632 1141.44 300.921 1141.57 301.179 1141.47L300.821 1140.53ZM372.49 1110.46C372.746 1110.36 372.869 1110.07 372.765 1109.81C372.661 1109.56 372.37 1109.43 372.114 1109.54L372.49 1110.46ZM380.375 1120.09L380.344 1119.59L380.344 1119.59L380.375 1120.09ZM375.816 1131.44C375.589 1131.28 375.278 1131.34 375.12 1131.57C374.963 1131.79 375.019 1132.11 375.246 1132.26L375.816 1131.44ZM241.711 1239.49C241.981 1239.43 242.152 1239.16 242.094 1238.89C242.035 1238.62 241.769 1238.45 241.499 1238.51L241.711 1239.49ZM231.561 1256.81L231.782 1256.36L231.782 1256.36L231.561 1256.81ZM260.855 1257.27L261.237 1256.94L261.237 1256.94L260.855 1257.27ZM260.762 1267.82L260.411 1267.47L260.411 1267.47L260.762 1267.82ZM239.931 1276.5C239.655 1276.5 239.431 1276.72 239.431 1277C239.431 1277.28 239.655 1277.5 239.931 1277.5V1276.5ZM268.462 1238.82C268.356 1238.57 268.064 1238.45 267.809 1238.55C267.554 1238.66 267.432 1238.95 267.538 1239.2L268.462 1238.82ZM282.628 1259.4L282.962 1259.03L282.962 1259.03L282.628 1259.4ZM288.831 1239.01L288.518 1239.4L288.518 1239.4L288.831 1239.01ZM278.473 1223.84C278.386 1223.58 278.103 1223.44 277.841 1223.53C277.579 1223.61 277.437 1223.9 277.524 1224.16L278.473 1223.84ZM307.913 1226.39C308.131 1226.23 308.17 1225.91 308.001 1225.69C307.831 1225.48 307.517 1225.44 307.299 1225.61L307.913 1226.39ZM308.442 1255.03L308.748 1254.64L308.748 1254.64L308.442 1255.03ZM326.5 1252.63C326.5 1252.35 326.276 1252.13 326 1252.13C325.724 1252.13 325.5 1252.35 325.5 1252.63H326.5ZM318.5 1215.99C318.493 1215.71 318.265 1215.49 317.988 1215.5C317.712 1215.51 317.494 1215.74 317.5 1216.01L318.5 1215.99ZM338.55 1261.22C338.67 1261.47 338.97 1261.57 339.218 1261.45C339.467 1261.33 339.57 1261.03 339.45 1260.78L338.55 1261.22ZM336.35 1219.36C336.547 1219.16 336.55 1218.85 336.357 1218.65C336.163 1218.45 335.847 1218.45 335.65 1218.64L336.35 1219.36ZM320.554 1236.77C320.429 1237.02 320.527 1237.32 320.773 1237.45C321.019 1237.57 321.32 1237.47 321.446 1237.23L320.554 1236.77ZM323.017 1238.5C322.741 1238.49 322.51 1238.71 322.5 1238.98C322.491 1239.26 322.707 1239.49 322.983 1239.5L323.017 1238.5ZM381.898 1256.49C382.169 1256.55 382.433 1256.37 382.49 1256.1C382.546 1255.83 382.372 1255.57 382.102 1255.51L381.898 1256.49ZM152.42 1291.84C149.913 1284.26 146.722 1276.64 143.943 1269.02C141.154 1261.37 138.758 1253.66 137.783 1245.81L136.791 1245.93C137.78 1253.9 140.207 1261.69 143.003 1269.36C145.809 1277.06 148.966 1284.59 151.471 1292.16L152.42 1291.84ZM137.783 1245.81L137.772 1245.71L136.779 1245.84L136.791 1245.93L137.783 1245.81ZM137.772 1245.71C137.648 1244.72 137.539 1243.83 137.508 1243.06C137.478 1242.27 137.53 1241.65 137.701 1241.16C137.866 1240.69 138.142 1240.34 138.6 1240.09C139.076 1239.83 139.785 1239.67 140.838 1239.67V1238.67C139.7 1238.67 138.806 1238.84 138.127 1239.21C137.43 1239.58 136.997 1240.14 136.757 1240.83C136.524 1241.49 136.477 1242.27 136.509 1243.09C136.541 1243.92 136.657 1244.85 136.779 1245.84L137.772 1245.71ZM140.838 1239.67C144.306 1239.67 145.594 1240.02 146.536 1240.83C147.028 1241.26 147.45 1241.83 148.021 1242.66C148.585 1243.47 149.275 1244.48 150.283 1245.73L151.059 1245.1C150.079 1243.89 149.411 1242.9 148.842 1242.08C148.28 1241.28 147.792 1240.6 147.19 1240.08C145.942 1239 144.303 1238.67 140.838 1238.67V1239.67ZM150.283 1245.73C152.554 1248.52 153.775 1251.27 154.786 1254.15C155.79 1257 156.608 1260.06 158.044 1263.31L158.958 1262.91C157.542 1259.7 156.767 1256.76 155.729 1253.81C154.699 1250.88 153.431 1248.02 151.059 1245.1L150.283 1245.73ZM158.044 1263.31C158.268 1263.82 158.537 1264.56 158.843 1265.41C159.148 1266.26 159.486 1267.22 159.845 1268.15C160.203 1269.08 160.587 1270 160.984 1270.77C161.372 1271.52 161.805 1272.19 162.284 1272.58L162.912 1271.8C162.608 1271.56 162.253 1271.05 161.872 1270.31C161.5 1269.59 161.132 1268.71 160.778 1267.79C160.425 1266.87 160.091 1265.93 159.785 1265.07C159.481 1264.23 159.2 1263.46 158.958 1262.91L158.044 1263.31ZM162.284 1272.58C162.462 1272.72 162.647 1272.85 162.835 1272.91C163.027 1272.98 163.308 1273 163.551 1272.81C163.764 1272.65 163.826 1272.4 163.848 1272.24C163.872 1272.06 163.863 1271.86 163.84 1271.67C163.748 1270.89 163.371 1269.68 162.927 1268.41C162.477 1267.13 161.936 1265.73 161.491 1264.58C161.267 1264 161.069 1263.48 160.915 1263.05C160.758 1262.62 160.661 1262.33 160.628 1262.18L159.652 1262.39C159.701 1262.62 159.823 1262.98 159.976 1263.4C160.132 1263.83 160.334 1264.36 160.557 1264.94C161.005 1266.1 161.539 1267.48 161.983 1268.74C162.433 1270.02 162.77 1271.13 162.846 1271.78C162.865 1271.94 162.865 1272.05 162.857 1272.11C162.847 1272.18 162.838 1272.1 162.934 1272.03C163.061 1271.93 163.179 1271.97 163.159 1271.96C163.134 1271.95 163.055 1271.92 162.912 1271.8L162.284 1272.58ZM160.628 1262.18C159.651 1257.75 157.987 1254.24 156.603 1250.75C155.215 1247.25 154.084 1243.73 154.084 1239.17H153.084C153.084 1243.91 154.266 1247.57 155.673 1251.12C157.084 1254.67 158.698 1258.07 159.652 1262.39L160.628 1262.18ZM154.084 1239.17C154.084 1237.97 154.421 1236.17 155.047 1234.14C155.67 1232.12 156.569 1229.91 157.671 1227.91C158.776 1225.91 160.069 1224.14 161.468 1222.97C162.863 1221.8 164.309 1221.27 165.766 1221.6L165.985 1220.62C164.114 1220.2 162.359 1220.92 160.826 1222.2C159.295 1223.48 157.931 1225.37 156.796 1227.43C155.657 1229.5 154.732 1231.77 154.091 1233.84C153.453 1235.91 153.084 1237.83 153.084 1239.17H154.084ZM165.766 1221.6C166.995 1221.87 168.375 1223.02 169.78 1224.83C171.167 1226.61 172.509 1228.93 173.684 1231.4C174.858 1233.85 175.857 1236.43 176.562 1238.71C177.271 1241 177.667 1242.93 177.667 1244.13H178.667C178.667 1242.77 178.232 1240.72 177.517 1238.41C176.798 1236.09 175.781 1233.47 174.587 1230.96C173.393 1228.47 172.015 1226.07 170.569 1224.21C169.141 1222.38 167.575 1220.98 165.985 1220.62L165.766 1221.6ZM177.667 1244.13C177.667 1245.68 178.09 1247.49 178.755 1249.4C179.422 1251.32 180.344 1253.36 181.367 1255.37C183.414 1259.38 185.884 1263.3 187.583 1265.86L188.417 1265.31C186.727 1262.76 184.281 1258.88 182.258 1254.91C181.247 1252.93 180.346 1250.93 179.699 1249.07C179.05 1247.21 178.667 1245.51 178.667 1244.13H177.667ZM201.437 1219.26C198.103 1221.82 194.521 1226 192.398 1230.68C190.275 1235.36 189.577 1240.61 192.177 1245.21L193.048 1244.72C190.665 1240.5 191.257 1235.61 193.308 1231.09C195.358 1226.58 198.832 1222.52 202.046 1220.05L201.437 1219.26ZM192.177 1245.21C194.305 1248.98 197.307 1250.59 200.734 1251.19C204.112 1251.78 207.945 1251.39 211.728 1251.18L211.673 1250.18C207.808 1250.4 204.139 1250.77 200.906 1250.2C197.722 1249.65 195.004 1248.19 193.048 1244.72L192.177 1245.21ZM211.728 1251.18C212.563 1251.14 213.313 1250.74 213.971 1250.13C214.628 1249.53 215.219 1248.7 215.751 1247.74C216.816 1245.8 217.694 1243.23 218.392 1240.56C219.789 1235.21 220.5 1229.33 220.5 1227H219.5C219.5 1229.22 218.806 1235.02 217.425 1240.31C216.735 1242.95 215.881 1245.43 214.875 1247.25C214.372 1248.17 213.843 1248.89 213.295 1249.4C212.75 1249.9 212.21 1250.15 211.673 1250.18L211.728 1251.18ZM220.5 1227C220.5 1224.46 219.857 1222.54 218.709 1221.13C217.565 1219.72 215.962 1218.87 214.14 1218.34C210.531 1217.3 205.865 1217.52 201.742 1217.52V1218.52C205.966 1218.52 210.429 1218.31 213.863 1219.3C215.562 1219.79 216.958 1220.56 217.933 1221.76C218.904 1222.96 219.5 1224.63 219.5 1227H220.5ZM212.5 1178.01C212.711 1188.65 216.484 1196.65 221.194 1204.02C223.542 1207.7 226.139 1211.24 228.632 1214.85C231.131 1218.46 233.541 1222.17 235.552 1226.22L236.448 1225.78C234.404 1221.66 231.963 1217.91 229.455 1214.28C226.94 1210.64 224.372 1207.14 222.036 1203.48C217.379 1196.2 213.706 1188.37 213.5 1177.99L212.5 1178.01ZM235.361 1204.68C236.037 1203.98 237.736 1202.54 239.931 1200.61L239.269 1199.86C237.119 1201.75 235.354 1203.25 234.639 1203.99L235.361 1204.68ZM239.931 1200.61C243.869 1197.13 249.305 1192.13 252.621 1187.34C254.275 1184.95 255.448 1182.55 255.593 1180.38C255.666 1179.28 255.476 1178.23 254.948 1177.28C254.419 1176.33 253.571 1175.5 252.378 1174.83L251.885 1175.7C252.951 1176.3 253.651 1177 254.073 1177.76C254.495 1178.52 254.657 1179.37 254.595 1180.31C254.469 1182.21 253.422 1184.43 251.799 1186.77C248.562 1191.45 243.215 1196.38 239.269 1199.86L239.931 1200.61ZM252.378 1174.83C249.694 1173.31 247.422 1172.57 245.514 1172.5C243.584 1172.44 242.044 1173.08 240.87 1174.28C239.711 1175.46 238.94 1177.15 238.455 1179.15C237.97 1181.16 237.763 1183.51 237.763 1186.06H238.763C238.763 1183.56 238.967 1181.29 239.427 1179.39C239.889 1177.48 240.599 1175.98 241.584 1174.98C242.553 1173.99 243.818 1173.45 245.482 1173.5C247.166 1173.56 249.275 1174.22 251.885 1175.7L252.378 1174.83ZM237.763 1186.06C237.763 1187.95 237.699 1190.41 237.835 1192.95C237.971 1195.48 238.309 1198.13 239.13 1200.4L240.07 1200.06C239.298 1197.93 238.968 1195.39 238.833 1192.89C238.699 1190.4 238.763 1187.98 238.763 1186.06H237.763ZM239.13 1200.4C239.748 1202.12 240.651 1203.64 241.976 1204.75C243.31 1205.85 245.036 1206.5 247.237 1206.5V1205.5C245.246 1205.5 243.753 1204.92 242.616 1203.98C241.47 1203.02 240.65 1201.67 240.07 1200.06L239.13 1200.4ZM247.237 1206.5C251 1206.5 255.799 1204.42 259.641 1201.29C263.481 1198.17 266.5 1193.89 266.5 1189.39H265.5C265.5 1193.45 262.748 1197.48 259.01 1200.52C255.276 1203.56 250.693 1205.5 247.237 1205.5V1206.5ZM267.5 1163.13C267.714 1172.17 271.352 1179.03 275.701 1185.79L276.541 1185.25C272.22 1178.53 268.707 1171.87 268.5 1163.1L267.5 1163.13ZM275.701 1185.79C276.604 1187.19 277.539 1188.6 278.481 1190.01C279.424 1191.43 280.374 1192.86 281.309 1194.33L282.152 1193.79C281.211 1192.31 280.257 1190.87 279.314 1189.46C278.37 1188.04 277.439 1186.64 276.541 1185.25L275.701 1185.79ZM281.309 1194.33C282.349 1195.96 283.071 1197.12 283.536 1197.91C283.769 1198.3 283.934 1198.59 284.042 1198.8C284.096 1198.9 284.132 1198.98 284.155 1199.03C284.185 1199.1 284.173 1199.08 284.166 1199.03C284.164 1199.02 284.16 1198.98 284.166 1198.92C284.173 1198.87 284.194 1198.77 284.279 1198.67C284.499 1198.41 284.791 1198.52 284.822 1198.53C284.857 1198.55 284.881 1198.56 284.892 1198.57C284.903 1198.58 284.91 1198.58 284.912 1198.58C284.915 1198.58 284.91 1198.58 284.896 1198.57C284.835 1198.51 284.725 1198.38 284.566 1198.18C284.254 1197.79 283.802 1197.17 283.266 1196.42C282.197 1194.91 280.814 1192.86 279.591 1190.91C278.359 1188.95 277.315 1187.14 276.901 1186.09L275.971 1186.46C276.425 1187.6 277.518 1189.49 278.744 1191.44C279.978 1193.4 281.372 1195.47 282.45 1197C282.989 1197.76 283.454 1198.39 283.782 1198.8C283.943 1199 284.085 1199.17 284.192 1199.28C284.22 1199.31 284.251 1199.33 284.285 1199.36C284.312 1199.38 284.371 1199.43 284.452 1199.46C284.503 1199.48 284.809 1199.59 285.038 1199.32C285.127 1199.22 285.151 1199.11 285.159 1199.05C285.166 1198.99 285.162 1198.93 285.158 1198.9C285.144 1198.8 285.099 1198.69 285.071 1198.63C285.035 1198.54 284.986 1198.44 284.927 1198.33C284.808 1198.11 284.632 1197.8 284.396 1197.4C283.923 1196.6 283.195 1195.42 282.152 1193.79L281.309 1194.33ZM276.901 1186.09C276.797 1185.83 276.689 1185.57 276.579 1185.32L275.663 1185.72C275.769 1185.96 275.872 1186.21 275.971 1186.46L276.901 1186.09ZM276.579 1185.32C276.012 1184.02 275.36 1182.79 274.811 1181.66C274.254 1180.51 273.789 1179.43 273.541 1178.32C273.055 1176.16 273.373 1173.83 275.755 1170.75L274.963 1170.14C272.43 1173.42 272.004 1176.05 272.565 1178.54C272.84 1179.76 273.346 1180.93 273.911 1182.1C274.484 1183.28 275.104 1184.44 275.663 1185.72L276.579 1185.32ZM275.755 1170.75C276.753 1169.45 279.458 1166.74 282.225 1165.02C283.614 1164.15 284.957 1163.57 286.073 1163.51C286.622 1163.47 287.097 1163.56 287.498 1163.78C287.896 1164 288.259 1164.37 288.552 1164.96L289.448 1164.52C289.08 1163.78 288.585 1163.24 287.981 1162.91C287.379 1162.58 286.706 1162.47 286.012 1162.51C284.645 1162.59 283.129 1163.27 281.696 1164.17C278.819 1165.96 276.026 1168.76 274.963 1170.14L275.755 1170.75ZM324.338 1155.5C322.402 1155.5 320.464 1155.53 318.56 1155.63L318.611 1156.63C320.492 1156.53 322.412 1156.5 324.338 1156.5V1155.5ZM318.56 1155.63C318.392 1155.64 318.224 1155.65 318.057 1155.66L318.115 1156.65C318.28 1156.65 318.445 1156.64 318.611 1156.63L318.56 1155.63ZM318.057 1155.66C312.128 1156 306.496 1157.01 302.339 1159.79C298.139 1162.59 295.512 1167.15 295.512 1174.4H296.512C296.512 1167.43 299.012 1163.21 302.894 1160.62C306.819 1158 312.225 1156.99 318.115 1156.65L318.057 1155.66ZM295.512 1174.4C295.512 1176.1 295.474 1177.51 295.533 1178.64C295.591 1179.76 295.747 1180.7 296.197 1181.43C296.665 1182.18 297.402 1182.64 298.45 1182.91C299.479 1183.17 300.857 1183.26 302.677 1183.26V1182.26C300.867 1182.26 299.597 1182.17 298.696 1181.94C297.813 1181.71 297.338 1181.37 297.047 1180.9C296.738 1180.4 296.589 1179.68 296.532 1178.59C296.475 1177.5 296.512 1176.14 296.512 1174.4H295.512ZM302.677 1183.26C304.017 1183.26 305.292 1183.36 306.516 1183.43C307.728 1183.5 308.896 1183.55 309.97 1183.43C311.05 1183.31 312.062 1183.03 312.956 1182.43C313.853 1181.82 314.593 1180.92 315.168 1179.62L314.253 1179.21C313.74 1180.37 313.11 1181.12 312.396 1181.6C311.68 1182.08 310.839 1182.33 309.863 1182.44C308.88 1182.54 307.787 1182.5 306.574 1182.43C305.372 1182.36 304.055 1182.26 302.677 1182.26V1183.26ZM315.168 1179.62C316.03 1177.67 316.779 1174.9 317.313 1172.11C317.847 1169.32 318.173 1166.47 318.173 1164.36H317.173C317.173 1166.39 316.857 1169.17 316.33 1171.92C315.803 1174.68 315.071 1177.37 314.253 1179.21L315.168 1179.62ZM318.173 1164.36C318.173 1162.74 318.134 1160.92 318.166 1159.38C318.182 1158.61 318.216 1157.94 318.278 1157.4C318.31 1157.13 318.347 1156.91 318.39 1156.74C318.435 1156.56 318.478 1156.47 318.501 1156.43L317.67 1155.88C317.552 1156.05 317.475 1156.28 317.42 1156.5C317.363 1156.73 317.319 1156.99 317.285 1157.29C317.217 1157.87 317.183 1158.58 317.166 1159.36C317.134 1160.91 317.173 1162.77 317.173 1164.36H318.173ZM318.501 1156.43C318.521 1156.4 318.475 1156.49 318.344 1156.5C318.228 1156.51 318.19 1156.45 318.252 1156.5L318.919 1155.76C318.771 1155.62 318.547 1155.48 318.266 1155.5C317.969 1155.53 317.778 1155.72 317.67 1155.88L318.501 1156.43ZM318.252 1156.5C318.388 1156.62 318.626 1156.97 318.965 1157.71C319.293 1158.42 319.688 1159.43 320.162 1160.81L321.108 1160.48C320.629 1159.09 320.221 1158.05 319.874 1157.29C319.537 1156.56 319.227 1156.03 318.919 1155.76L318.252 1156.5ZM320.162 1160.81C320.914 1162.99 322.621 1164.99 324.712 1166.56C326.808 1168.14 329.331 1169.32 331.776 1169.85C334.21 1170.38 336.637 1170.26 338.477 1169.14C340.349 1168 341.5 1165.89 341.5 1162.69H340.5C340.5 1165.64 339.46 1167.37 337.957 1168.29C336.421 1169.22 334.289 1169.37 331.986 1168.87C329.694 1168.38 327.303 1167.26 325.314 1165.76C323.321 1164.26 321.774 1162.41 321.108 1160.48L320.162 1160.81ZM315.678 1110.38C328.279 1121.02 337.427 1133.32 348.538 1145.19L349.268 1144.5C338.259 1132.75 328.979 1120.3 316.322 1109.62L315.678 1110.38ZM348.538 1145.19C351.871 1148.75 356.517 1151.48 360.415 1151.5C362.393 1151.51 364.196 1150.82 365.49 1149.17C366.769 1147.54 367.5 1145.04 367.5 1141.53H366.5C366.5 1144.92 365.791 1147.17 364.704 1148.55C363.632 1149.92 362.144 1150.51 360.42 1150.5C356.913 1150.48 352.511 1147.97 349.268 1144.5L348.538 1145.19ZM351 1116.5C339.739 1116.5 330.996 1118.62 323.949 1127.08L324.717 1127.72C331.493 1119.59 339.878 1117.5 351 1117.5V1116.5ZM323.949 1127.08C317.846 1134.4 310.166 1136.94 300.821 1140.53L301.179 1141.47C310.452 1137.91 318.414 1135.28 324.717 1127.72L323.949 1127.08ZM372.114 1109.54C371.306 1109.86 370.216 1110.18 368.982 1110.56C367.764 1110.93 366.43 1111.37 365.195 1111.92C362.759 1113.02 360.5 1114.69 360.5 1117.56H361.5C361.5 1115.34 363.224 1113.9 365.605 1112.83C366.779 1112.3 368.062 1111.89 369.276 1111.51C370.474 1111.15 371.63 1110.81 372.49 1110.46L372.114 1109.54ZM360.5 1117.56C360.5 1119.07 360.65 1120.64 361.291 1121.85C361.617 1122.47 362.074 1123 362.705 1123.38C363.335 1123.75 364.108 1123.95 365.036 1123.95V1122.95C364.251 1122.95 363.662 1122.78 363.214 1122.52C362.767 1122.25 362.429 1121.87 362.175 1121.39C361.655 1120.4 361.5 1119.04 361.5 1117.56H360.5ZM365.036 1123.95C368.118 1123.95 370.76 1123.16 373.222 1122.36C375.704 1121.55 377.97 1120.73 380.405 1120.58L380.344 1119.59C377.751 1119.75 375.344 1120.61 372.912 1121.41C370.461 1122.21 367.948 1122.95 365.036 1122.95V1123.95ZM380.405 1120.58C384.734 1120.32 387.245 1121.46 388.48 1123.03C389.714 1124.6 389.784 1126.73 388.93 1128.71C388.076 1130.68 386.323 1132.42 384.036 1133.14C381.767 1133.86 378.915 1133.59 375.816 1131.44L375.246 1132.26C378.566 1134.57 381.737 1134.92 384.338 1134.1C386.921 1133.28 388.888 1131.32 389.848 1129.1C390.807 1126.89 390.784 1124.34 389.265 1122.41C387.747 1120.48 384.845 1119.31 380.344 1119.59L380.405 1120.58ZM241.499 1238.51C239.415 1238.96 236.854 1239.88 234.404 1241.11C231.958 1242.33 229.589 1243.89 227.914 1245.63C226.248 1247.35 225.186 1249.36 225.583 1251.45C225.978 1253.54 227.788 1255.5 231.34 1257.26L231.782 1256.36C228.329 1254.65 226.873 1252.89 226.565 1251.26C226.258 1249.64 227.056 1247.96 228.634 1246.32C230.202 1244.69 232.463 1243.2 234.852 1242C237.239 1240.81 239.721 1239.92 241.711 1239.49L241.499 1238.51ZM231.34 1257.26C232.583 1257.87 234.115 1258.07 235.752 1258.06C237.395 1258.04 239.19 1257.81 240.986 1257.5C242.756 1257.2 244.63 1256.82 246.287 1256.53C247.981 1256.24 249.527 1256.02 250.812 1256.02V1255.02C249.435 1255.02 247.815 1255.25 246.115 1255.55C244.377 1255.85 242.627 1256.21 240.82 1256.52C239.04 1256.82 237.306 1257.04 235.743 1257.06C234.174 1257.07 232.823 1256.87 231.782 1256.36L231.34 1257.26ZM250.812 1256.02C251.698 1256.02 252.63 1255.95 253.539 1255.9C254.456 1255.84 255.356 1255.8 256.217 1255.84C257.936 1255.92 259.413 1256.33 260.473 1257.59L261.237 1256.94C259.917 1255.38 258.105 1254.92 256.263 1254.84C255.344 1254.79 254.395 1254.84 253.477 1254.9C252.549 1254.96 251.658 1255.02 250.812 1255.02V1256.02ZM260.473 1257.59C260.75 1257.92 261.013 1258.58 261.204 1259.5C261.39 1260.4 261.493 1261.47 261.5 1262.55C261.506 1263.63 261.415 1264.69 261.222 1265.59C261.024 1266.5 260.736 1267.14 260.411 1267.47L261.114 1268.18C261.654 1267.64 261.992 1266.76 262.199 1265.8C262.412 1264.82 262.506 1263.67 262.5 1262.54C262.493 1261.41 262.385 1260.27 262.183 1259.29C261.985 1258.34 261.683 1257.47 261.237 1256.94L260.473 1257.59ZM260.411 1267.47C257.954 1269.89 254.514 1272.15 250.834 1273.81C247.151 1275.47 243.268 1276.5 239.931 1276.5V1277.5C243.454 1277.5 247.48 1276.42 251.244 1274.72C255.011 1273.03 258.557 1270.7 261.114 1268.18L260.411 1267.47ZM267.538 1239.2C271.067 1247.73 275.817 1253.94 282.293 1259.77L282.962 1259.03C276.582 1253.28 271.927 1247.19 268.462 1238.82L267.538 1239.2ZM282.293 1259.77C283.578 1260.93 284.941 1261.47 286.274 1261.5C287.602 1261.53 288.852 1261.06 289.918 1260.28C292.035 1258.74 293.497 1255.95 293.497 1253.19H292.497C292.497 1255.63 291.189 1258.12 289.33 1259.47C288.407 1260.15 287.367 1260.52 286.297 1260.5C285.234 1260.47 284.093 1260.05 282.962 1259.03L282.293 1259.77ZM293.497 1253.19C293.497 1250.66 293.567 1247.94 293.068 1245.42C292.566 1242.88 291.478 1240.49 289.143 1238.62L288.518 1239.4C290.621 1241.09 291.617 1243.24 292.087 1245.62C292.562 1248.02 292.497 1250.61 292.497 1253.19H293.497ZM289.143 1238.62C287.571 1237.36 285.221 1234.63 283.087 1231.7C280.95 1228.76 279.097 1225.72 278.473 1223.84L277.524 1224.16C278.202 1226.19 280.138 1229.35 282.278 1232.29C284.422 1235.24 286.837 1238.06 288.518 1239.4L289.143 1238.62ZM307.299 1225.61C297.938 1232.88 298.267 1247.79 308.136 1255.43L308.748 1254.64C299.353 1247.36 299.11 1233.24 307.913 1226.39L307.299 1225.61ZM308.136 1255.43C309.269 1256.3 310.963 1257.08 312.843 1257.63C314.729 1258.18 316.839 1258.52 318.824 1258.5C320.799 1258.48 322.702 1258.11 324.127 1257.19C325.583 1256.24 326.5 1254.75 326.5 1252.63H325.5C325.5 1254.41 324.755 1255.59 323.584 1256.35C322.383 1257.12 320.696 1257.48 318.814 1257.5C316.942 1257.52 314.93 1257.2 313.124 1256.67C311.312 1256.14 309.746 1255.41 308.748 1254.64L308.136 1255.43ZM317.5 1216.01C317.722 1225.63 321.208 1233.23 325.519 1240.27C327.67 1243.79 330.04 1247.18 332.305 1250.6C334.576 1254.04 336.753 1257.51 338.55 1261.22L339.45 1260.78C337.623 1257.01 335.417 1253.49 333.139 1250.05C330.855 1246.6 328.511 1243.24 326.372 1239.75C322.105 1232.78 318.716 1225.36 318.5 1215.99L317.5 1216.01ZM335.65 1218.64C330.124 1224.07 324.049 1229.91 320.554 1236.77L321.446 1237.23C324.851 1230.54 330.79 1224.82 336.35 1219.36L335.65 1218.64ZM322.983 1239.5C333.529 1239.86 343.193 1243.04 352.767 1246.68C362.319 1250.3 371.807 1254.4 381.898 1256.49L382.102 1255.51C372.111 1253.44 362.732 1249.39 353.122 1245.74C343.532 1242.1 333.737 1238.86 323.017 1238.5L322.983 1239.5Z" fill="black" fill-opacity="0.5"/>
<path d="M1962 648C1960.37 656.342 1958.92 663.65 1969 665.889C1973.33 666.851 1979.35 666.406 1981.56 662C1987.12 650.871 1967.49 652 1962 652" stroke="black" stroke-opacity="0.5" stroke-linecap="round" stroke-linejoin="round"/>
<path d="M2020 658C2020.42 675.249 2030.58 680.579 2037.56 664C2043.86 649.017 2029.77 650 2020 650" stroke="black" stroke-opacity="0.5" stroke-linecap="round" stroke-linejoin="round"/>
<path d="M1926 698C1942.04 721.375 1967.39 729.083 1994 735.556C2017.23 741.206 2032.1 724.152 2042 706" stroke="black" stroke-opacity="0.5" stroke-linecap="round" stroke-linejoin="round"/>
<path d="M382 1184C382 1196.57 382.862 1199.08 390.889 1207.11C395.122 1211.34 398.84 1219.42 404 1222" stroke="black" stroke-opacity="0.5" stroke-linecap="round" stroke-linejoin="round"/>
<path d="M418 1244C418.118 1248.85 417.527 1261.32 426 1257.56C431.075 1255.3 430 1251.97 430 1247C430 1242.27 426.073 1243.59 424 1241C419.872 1235.84 420 1246.24 420 1248" stroke="black" stroke-opacity="0.5" stroke-linecap="round" stroke-linejoin="round"/>
<path d="M368 1296C391.071 1294.04 414.467 1290.9 437.667 1292.22C450.657 1292.96 459.91 1295.46 465.556 1307.56C468.571 1314.02 472.656 1321.08 479.778 1323.78C487.945 1326.87 497.971 1324.26 505.778 1321.56C540.733 1309.45 570.623 1286.83 602 1268" stroke="black" stroke-opacity="0.5" stroke-linecap="round" stroke-linejoin="round"/>
</svg>
